<svg width="20" height="20" viewBox="0 0 20 20" fill="none" xmlns="http://www.w3.org/2000/svg">
<path d="M19.7005 12.419C18.365 17.7762 12.939 21.0365 7.58115 19.7006C2.22556 18.365 -1.03472 12.9387 0.301438 7.58197C1.63642 2.22419 7.06239 -1.03634 12.4186 0.299234C17.776 1.63481 21.0361 7.0617 19.7004 12.4191L19.7005 12.419H19.7005Z" fill="#F7931A"/>
<path fill-rule="evenodd" clip-rule="evenodd" d="M14.4099 8.57522C14.6089 7.24444 13.5957 6.52909 12.2103 6.05188L12.6597 4.24922L11.5624 3.97579L11.1249 5.73099C10.8364 5.65904 10.5401 5.59125 10.2457 5.52404L10.6864 3.75726L9.58974 3.48383L9.14005 5.2859C8.90133 5.23155 8.66685 5.17783 8.43937 5.12123L8.44064 5.11556L6.92739 4.73767L6.63549 5.90969C6.63549 5.90969 7.44962 6.09631 7.43246 6.1078C7.87682 6.21871 7.95718 6.51286 7.94383 6.74602L7.43187 8.79967C7.46247 8.80744 7.50216 8.81868 7.54596 8.83628L7.51414 8.82834L7.51409 8.82833C7.48701 8.82155 7.45887 8.81451 7.42997 8.80759L6.71237 11.6845C6.65807 11.8195 6.52023 12.0221 6.20955 11.9451C6.22055 11.9611 5.41199 11.7461 5.41199 11.7461L4.86719 13.0022L6.29519 13.3582C6.45157 13.3974 6.6061 13.4377 6.75907 13.4776L6.75917 13.4776C6.86603 13.5054 6.97212 13.5331 7.07755 13.5601L6.62346 15.3834L7.71953 15.6568L8.16921 13.8528C8.46865 13.9341 8.75923 14.0091 9.04371 14.0798L8.59554 15.8753L9.69292 16.1487L10.147 14.3288C12.0181 14.6829 13.4251 14.5401 14.0174 12.8476C14.4946 11.485 13.9936 10.699 13.0092 10.1865C13.7262 10.0211 14.2662 9.54952 14.4102 8.57536L14.4099 8.57512L14.4099 8.57522ZM11.9027 12.0909C11.5916 13.3411 9.63467 12.8242 8.73933 12.5877C8.65879 12.5665 8.58684 12.5475 8.52545 12.5322L9.12803 10.1166C9.20285 10.1353 9.29427 10.1558 9.39785 10.1791C10.324 10.3869 12.2215 10.8127 11.9027 12.0909H11.9027ZM9.58362 9.05794C10.3301 9.25715 11.9585 9.69173 12.2421 8.55547H12.2422C12.5317 7.39335 10.9492 7.04299 10.1763 6.87187C10.0894 6.85262 10.0127 6.83563 9.95003 6.82002L9.4037 9.01083C9.45529 9.02369 9.51581 9.03984 9.58362 9.05794Z" fill="white"/>
</svg>
