<svg width="50" height="20" viewBox="0 0 50 20" fill="none" xmlns="http://www.w3.org/2000/svg">
<path d="M19.7005 12.419C18.365 17.7762 12.939 21.0365 7.58115 19.7006C2.22556 18.365 -1.03472 12.9387 0.301438 7.58197C1.63642 2.22419 7.06239 -1.03634 12.4186 0.299234C17.776 1.63481 21.0361 7.0617 19.7004 12.4191L19.7005 12.419H19.7005Z" fill="#F7931A"/>
<path fill-rule="evenodd" clip-rule="evenodd" d="M14.4099 8.57525C14.6089 7.24447 13.5957 6.52912 12.2103 6.05191L12.6597 4.24925L11.5624 3.97582L11.1249 5.73102C10.8364 5.65907 10.5401 5.59128 10.2457 5.52407L10.6864 3.75729L9.58974 3.48386L9.14005 5.28593C8.90133 5.23158 8.66685 5.17786 8.43937 5.12126L8.44064 5.11559L6.92739 4.7377L6.63549 5.90973C6.63549 5.90973 7.44962 6.09635 7.43246 6.10783C7.87682 6.21874 7.95718 6.51289 7.94383 6.74605L7.43187 8.7997C7.46247 8.80747 7.50216 8.81872 7.54596 8.83631L7.51414 8.82837L7.51409 8.82836C7.48701 8.82158 7.45887 8.81454 7.42997 8.80762L6.71237 11.6845C6.65807 11.8195 6.52023 12.0221 6.20955 11.9452C6.22055 11.9611 5.41199 11.7461 5.41199 11.7461L4.86719 13.0022L6.29519 13.3582C6.45157 13.3974 6.6061 13.4377 6.75907 13.4776L6.75917 13.4776C6.86603 13.5055 6.97212 13.5331 7.07755 13.5601L6.62346 15.3834L7.71953 15.6569L8.16921 13.8529C8.46865 13.9342 8.75923 14.0091 9.04371 14.0798L8.59554 15.8753L9.69292 16.1487L10.147 14.3288C12.0181 14.6829 13.4251 14.5402 14.0174 12.8477C14.4946 11.485 13.9936 10.699 13.0092 10.1865C13.7262 10.0211 14.2662 9.54956 14.4102 8.5754L14.4099 8.57515L14.4099 8.57525ZM11.9027 12.0909C11.5916 13.3411 9.63467 12.8243 8.73933 12.5878C8.65879 12.5665 8.58684 12.5475 8.52545 12.5323L9.12803 10.1167C9.20285 10.1353 9.29427 10.1558 9.39785 10.1791C10.324 10.3869 12.2215 10.8128 11.9027 12.0909H11.9027ZM9.58362 9.05797C10.3301 9.25718 11.9585 9.69176 12.2421 8.5555H12.2422C12.5317 7.39338 10.9492 7.04302 10.1763 6.8719C10.0894 6.85265 10.0127 6.83566 9.95003 6.82005L9.4037 9.01086C9.45529 9.02372 9.51581 9.03987 9.58362 9.05797Z" fill="white"/>
<circle cx="25" cy="10" r="10" fill="#EDF0F4"/>
<path d="M24.9741 4L24.8945 4.27021V12.1105L24.9741 12.1899L28.6134 10.0386L24.9741 4Z" fill="#343434"/>
<path d="M24.9734 4L21.334 10.0386L24.9734 12.1899V8.38441V4Z" fill="#8C8C8C"/>
<path d="M24.9726 12.8789L24.9277 12.9336V15.7264L24.9726 15.8573L28.6141 10.7288L24.9726 12.8789Z" fill="#3C3C3B"/>
<path d="M24.9734 15.8573V12.8789L21.334 10.7288L24.9734 15.8573Z" fill="#8C8C8C"/>
<path d="M24.9727 12.1899L28.612 10.0386L24.9727 8.3844V12.1899Z" fill="#141414"/>
<path d="M21.334 10.0386L24.9734 12.1899V8.3844L21.334 10.0386Z" fill="#393939"/>
<path d="M49.6986 12.419C48.363 17.7762 42.937 21.0365 37.5792 19.7006C32.2236 18.365 28.9633 12.9387 30.2995 7.58197C31.6345 2.22419 37.0604 -1.03634 42.4166 0.299234C47.7741 1.63481 51.0341 7.0617 49.6984 12.4191L49.6985 12.419H49.6986Z" fill="#50AF95"/>
<path fill-rule="evenodd" clip-rule="evenodd" d="M41.2654 11.1337C41.1947 11.139 40.8294 11.1608 40.0145 11.1608C39.3663 11.1608 38.9061 11.1413 38.7447 11.1337C36.2398 11.0235 34.3701 10.5875 34.3701 10.0654C34.3701 9.54332 36.2398 9.10788 38.7447 8.99592V10.6994C38.9085 10.7112 39.3775 10.7389 40.0257 10.7389C40.8035 10.7389 41.193 10.7065 41.2631 10.7V8.9971C43.7626 9.10846 45.6282 9.5445 45.6282 10.0654C45.6282 10.5863 43.7632 11.0223 41.2631 11.1331L41.2654 11.1337ZM41.2654 8.82091V7.29655H44.7537V4.97198H35.2563V7.29655H38.7441V8.82032C35.9092 8.95055 33.7773 9.5121 33.7773 10.185C33.7773 10.8579 35.9092 11.4189 38.7441 11.5497V16.4345H41.2648V11.5479C44.0932 11.4177 46.2215 10.8567 46.2215 10.1844C46.2215 9.51209 44.095 8.95114 41.2648 8.82032L41.2654 8.82091Z" fill="white"/>
</svg>
