<svg width="20" height="20" viewBox="0 0 20 20" fill="none" xmlns="http://www.w3.org/2000/svg">
<path d="M19.6986 12.419C18.363 17.7762 12.937 21.0365 7.57919 19.7006C2.22361 18.365 -1.03667 12.9387 0.299485 7.58197C1.63447 2.22419 7.06044 -1.03634 12.4166 0.299234C17.7741 1.63481 21.0341 7.0617 19.6984 12.4191L19.6985 12.419H19.6986Z" fill="#50AF95"/>
<path fill-rule="evenodd" clip-rule="evenodd" d="M11.2654 11.1337C11.1947 11.139 10.8294 11.1608 10.0145 11.1608C9.36631 11.1608 8.90611 11.1413 8.74465 11.1337C6.23979 11.0235 4.37012 10.5875 4.37012 10.0654C4.37012 9.54332 6.23979 9.10788 8.74465 8.99592V10.6994C8.90846 10.7112 9.3775 10.7389 10.0257 10.7389C10.8035 10.7389 11.193 10.7065 11.2631 10.7V8.9971C13.7626 9.10846 15.6282 9.5445 15.6282 10.0654C15.6282 10.5863 13.7632 11.0223 11.2631 11.1331L11.2654 11.1337ZM11.2654 8.82091V7.29655H14.7537V4.97198H5.25634V7.29655H8.74406V8.82032C5.90922 8.95055 3.77734 9.5121 3.77734 10.185C3.77734 10.8579 5.90922 11.4189 8.74406 11.5497V16.4345H11.2648V11.5479C14.0932 11.4177 16.2215 10.8567 16.2215 10.1844C16.2215 9.51209 14.095 8.95114 11.2648 8.82032L11.2654 8.82091Z" fill="white"/>
</svg>
