<svg width="24" height="24" viewBox="0 0 24 24" fill="none" xmlns="http://www.w3.org/2000/svg">
<path d="M10.4051 4.82081C10.61 3.99071 11.7901 3.99071 11.995 4.82081C12.8698 8.36412 15.6364 11.1307 19.1797 12.0054C20.0099 12.2103 20.0099 13.3904 19.1797 13.5953C15.6364 14.47 12.8698 17.2366 11.995 20.7799C11.7901 21.61 10.61 21.61 10.4051 20.7799C9.53033 17.2366 6.76372 14.47 3.2204 13.5953C2.39027 13.3904 2.39027 12.2103 3.2204 12.0054C6.76372 11.1307 9.53033 8.36412 10.4051 4.82081Z" fill="url(#paint0_linear_2001_16151)"/>
<path d="M19.1452 1.30338C19.2281 0.967382 19.7058 0.967382 19.7887 1.30338C20.1428 2.73757 21.2626 3.85736 22.6968 4.21141C23.0328 4.29435 23.0328 4.77202 22.6968 4.85496C21.2626 5.20901 20.1428 6.3288 19.7887 7.763C19.7058 8.09899 19.2281 8.09899 19.1452 7.763C18.7911 6.3288 17.6713 5.20901 16.2371 4.85496C15.9011 4.77202 15.9011 4.29435 16.2371 4.21141C17.6713 3.85736 18.7911 2.73757 19.1452 1.30338Z" fill="url(#paint1_linear_2001_16151)"/>
<defs>
<linearGradient id="paint0_linear_2001_16151" x1="11.424" y1="-4.83931" x2="9.64972" y2="24.3189" gradientUnits="userSpaceOnUse">
<stop offset="0.418269" stop-color="white"/>
<stop offset="1" stop-color="#95FB95"/>
</linearGradient>
<linearGradient id="paint1_linear_2001_16151" x1="19.5576" y1="-2.60668" x2="18.8394" y2="9.19546" gradientUnits="userSpaceOnUse">
<stop offset="0.418269" stop-color="white"/>
<stop offset="1" stop-color="#95FB95"/>
</linearGradient>
</defs>
</svg>
