<svg width="48" height="20" viewBox="0 0 48 20" fill="none" xmlns="http://www.w3.org/2000/svg">
<path d="M3.36255 7.80166C3.36255 7.28338 3.78785 7.08396 4.49237 7.08396C5.50239 7.08396 6.77828 7.38973 7.78839 7.93464V4.81123C6.68529 4.37266 5.59547 4.19987 4.49237 4.19987C1.79426 4.19987 0 5.60874 0 7.96127C0 11.6294 5.05046 11.0447 5.05046 12.6263C5.05046 13.2376 4.51891 13.437 3.77458 13.437C2.67148 13.437 1.26262 12.9851 0.146157 12.3737V15.537C1.38223 16.0686 2.63158 16.2945 3.77458 16.2945C6.53904 16.2945 8.43965 14.9256 8.43965 12.5465C8.42638 8.5859 3.36255 9.29024 3.36255 7.80166ZM12.3471 1.54175L9.10418 2.23282L9.09091 12.8788C9.09091 14.8459 10.5662 16.2945 12.5333 16.2945C13.6231 16.2945 14.4205 16.0952 14.8591 15.8559V13.1579C14.4339 13.3307 12.3338 13.942 12.3338 11.975V7.25675H14.8591V4.42584H12.3338L12.3471 1.54175ZM18.9926 5.40932L18.7799 4.42584H15.9091V16.0552H19.2318V8.17387C20.0159 7.15049 21.345 7.33655 21.7571 7.48271V4.42584C21.3318 4.26632 19.7767 3.97391 18.9926 5.40932ZM22.5678 4.42584H25.9038V16.0552H22.5678V4.42584ZM22.5678 3.41573L25.9038 2.69802V0L22.5678 0.704433V3.41573ZM32.8416 4.19987C31.539 4.19987 30.7017 4.81123 30.2366 5.23662L30.0637 4.41257H27.1398V19.9095L30.4625 19.2052L30.4759 15.4439C30.9543 15.7895 31.6587 16.2812 32.8283 16.2812C35.2074 16.2812 37.3737 14.3673 37.3737 10.1542C37.3605 6.29981 35.1675 4.19987 32.8416 4.19987ZM32.0441 13.3572C31.26 13.3572 30.7947 13.0782 30.4759 12.7326L30.4625 7.80166C30.8081 7.41627 31.2865 7.15049 32.0441 7.15049C33.2536 7.15049 34.0909 8.50609 34.0909 10.2472C34.0909 12.0282 33.2669 13.3572 32.0441 13.3572ZM47.8469 10.2871C47.8469 6.88463 46.1988 4.19987 43.0489 4.19987C39.8856 4.19987 37.9717 6.88472 37.9717 10.2605C37.9717 14.261 40.2313 16.2812 43.4741 16.2812C45.0558 16.2812 46.252 15.9224 47.1557 15.4174V12.7591C46.2521 13.2111 45.2153 13.4902 43.8995 13.4902C42.6103 13.4902 41.4673 13.0383 41.3211 11.47H47.8204C47.8204 11.2971 47.8469 10.606 47.8469 10.2871ZM41.2812 9.02447C41.2812 7.52261 42.1983 6.8979 43.0357 6.8979C43.8463 6.8979 44.7103 7.52261 44.7103 9.02447H41.2812Z" fill="white"/>
</svg>
