<svg width="19" height="15" viewBox="0 0 19 15" fill="none" xmlns="http://www.w3.org/2000/svg">
<path fill-rule="evenodd" clip-rule="evenodd" d="M11.5848 2.47799C10.0175 3.11479 6.88502 4.4328 2.18741 6.43203C1.42459 6.72834 1.02499 7.01823 0.988615 7.30168C0.927136 7.78071 1.54125 7.96934 2.37752 8.2262C2.49128 8.26114 2.60914 8.29734 2.72998 8.33571C3.55274 8.59696 4.6595 8.90259 5.23486 8.91473C5.75677 8.92575 6.33927 8.71557 6.98238 8.2842C11.3715 5.3901 13.6372 3.92728 13.7794 3.89574C13.8798 3.8735 14.0189 3.84552 14.1131 3.92733C14.2073 4.00913 14.198 4.16406 14.1881 4.20562C14.1272 4.45896 11.7166 6.64816 10.4691 7.78107C10.0802 8.13425 9.80429 8.38478 9.74789 8.44199C9.62156 8.57016 9.49281 8.6914 9.36907 8.80793C8.60471 9.5277 8.03151 10.0675 9.40081 10.9489C10.0588 11.3725 10.5854 11.7227 11.1107 12.0722C11.6844 12.4538 12.2566 12.8345 12.997 13.3085C13.1856 13.4293 13.3657 13.5547 13.5412 13.6769C14.2088 14.1419 14.8086 14.5596 15.5497 14.493C15.9803 14.4543 16.425 14.0588 16.6509 12.8792C17.1848 10.0915 18.2341 4.05143 18.4766 1.56246C18.4978 1.3444 18.4711 1.06532 18.4496 0.942807C18.4282 0.820297 18.3833 0.645745 18.2203 0.51653C18.0272 0.363502 17.7292 0.331232 17.5959 0.333414C16.9898 0.343955 16.0599 0.659794 11.5848 2.47799Z" fill="white"/>
</svg>
