<svg width="158" height="25" viewBox="0 0 158 25" fill="none" xmlns="http://www.w3.org/2000/svg">
<path d="M3.1475 19.0514H15.1759C15.3733 19.0514 15.5527 19.1681 15.6363 19.3504L17.7748 24.0127C17.9325 24.3565 17.687 24.7519 17.3144 24.7519H0.509065C0.117249 24.7519 -0.126669 24.3189 0.0689029 23.9732L2.70734 19.3108C2.79813 19.1504 2.96587 19.0514 3.1475 19.0514ZM24.5812 19.0514H36.6096C36.7912 19.0514 36.959 19.1504 37.0498 19.3108L39.6882 23.9732C39.8838 24.3189 39.6399 24.7519 39.2481 24.7519H22.4427C22.0701 24.7519 21.8246 24.3565 21.9823 24.0127L24.1208 19.3504C24.2044 19.1681 24.3838 19.0514 24.5812 19.0514ZM6.56668 10.4502H16.4018C16.5429 10.4502 16.6777 10.5101 16.7738 10.6154L19.3293 13.4169C19.6263 13.7424 20.1309 13.7424 20.4278 13.4169L22.9834 10.6154C23.0795 10.5101 23.2142 10.4502 23.3553 10.4502H33.1904C33.3777 10.4502 33.5497 10.5551 33.6382 10.7233L36.1921 15.5723C36.374 15.9177 36.1293 16.3372 35.7443 16.3372H23.3553C23.1471 16.3372 22.9481 16.4256 22.8061 16.5813L20.2506 19.3828C20.0495 19.6032 19.7076 19.6032 19.5066 19.3828L16.951 16.5813C16.809 16.4256 16.61 16.3372 16.4018 16.3372H4.01279C3.62786 16.3372 3.38314 15.9177 3.56505 15.5723L6.11893 10.7233C6.20747 10.5551 6.37947 10.4502 6.56668 10.4502ZM11.9 0H16.5301C16.7101 2.48139e-06 16.8766 0.0971359 16.968 0.255227L19.2321 4.17226C19.5227 4.67493 20.2344 4.67493 20.525 4.17226L22.7892 0.255227C22.8806 0.0971371 23.047 3.10174e-06 23.227 0H27.8571C28.037 4.96278e-06 28.2035 0.0971402 28.2949 0.255227L32.1981 7.00763C32.3979 7.35323 32.1543 7.79045 31.7603 7.79045H7.99681C7.60287 7.79045 7.35923 7.35323 7.55905 7.00763L11.4623 0.255227C11.5537 0.0971408 11.7201 5.58313e-06 11.9 0Z" fill="url(#paint0_linear_2002_46544)"/>
<path d="M51.8447 18.376L52.5479 5.71973H56.2568L59.21 16.8115H58.8848L61.8467 5.71973H65.5645L66.2676 18.376H64.0527L63.4727 7.37207H63.499L60.4141 18.376H57.6982L54.6133 7.37207H54.6396L54.0508 18.376H51.8447ZM67.9902 18.376V16.5215H69.7129V7.57422H67.9902V5.71973H73.7119V7.57422H71.9893V16.5215H73.7119V18.376H67.9902ZM75.8037 18.376V5.71973H79.0381L85.1377 17.0312L84.5137 17.084V5.71973H86.6934V18.376H83.582L77.333 7.00293L77.9834 6.94141V18.376H75.8037ZM92.8721 18.376V7.62695H88.3809V5.71973H99.6572V7.62695H95.1484V18.376H92.8721ZM98.2861 18.376L103.331 5.71973H106.056L111.083 18.376H108.64L104.685 7.56543L100.729 18.376H98.2861ZM101.292 14.6494V12.8125H108.06V14.6494H101.292ZM112.524 18.376V5.71973H118.044C121.026 5.71973 122.518 6.89746 122.518 9.25293C122.518 11.6201 120.959 12.8037 117.842 12.8037H114.801V18.376H112.524ZM120.074 18.376L116.541 12.1797H119.081L122.641 18.376H120.074ZM114.801 11.002H117.947C118.68 11.002 119.242 10.8555 119.635 10.5625C120.033 10.2637 120.232 9.83301 120.232 9.27051C120.232 8.70801 120.03 8.27441 119.626 7.96973C119.228 7.66504 118.659 7.5127 117.921 7.5127H114.801V11.002ZM123.977 18.376V16.5215H125.699V7.57422H123.977V5.71973H129.698V7.57422H127.976V16.5215H129.698V18.376H123.977ZM137.222 18.5957C135.938 18.5957 134.828 18.332 133.891 17.8047C132.959 17.2715 132.241 16.5156 131.737 15.5371C131.233 14.5586 130.981 13.3955 130.981 12.0479C130.981 10.7002 131.233 9.53711 131.737 8.55859C132.241 7.58008 132.959 6.82715 133.891 6.2998C134.828 5.7666 135.938 5.5 137.222 5.5C138.505 5.5 139.612 5.7666 140.544 6.2998C141.481 6.82715 142.202 7.58008 142.706 8.55859C143.21 9.53711 143.462 10.7002 143.462 12.0479C143.462 13.3955 143.21 14.5586 142.706 15.5371C142.202 16.5156 141.481 17.2715 140.544 17.8047C139.612 18.332 138.505 18.5957 137.222 18.5957ZM137.222 16.6885C138.019 16.6885 138.701 16.5039 139.27 16.1348C139.844 15.7598 140.283 15.2266 140.588 14.5352C140.893 13.8379 141.045 13.0088 141.045 12.0479C141.045 11.0811 140.893 10.252 140.588 9.56055C140.283 8.86914 139.844 8.33887 139.27 7.96973C138.701 7.59473 138.019 7.40723 137.222 7.40723C136.431 7.40723 135.748 7.59473 135.174 7.96973C134.6 8.33887 134.16 8.86914 133.855 9.56055C133.551 10.252 133.398 11.0811 133.398 12.0479C133.398 13.0088 133.551 13.8379 133.855 14.5352C134.16 15.2266 134.6 15.7598 135.174 16.1348C135.748 16.5039 136.431 16.6885 137.222 16.6885ZM145.466 18.376V5.71973H148.7L154.8 17.0312L154.176 17.084V5.71973H156.355V18.376H153.244L146.995 7.00293L147.646 6.94141V18.376H145.466Z" fill="#F5F5F5"/>
<defs>
<linearGradient id="paint0_linear_2002_46544" x1="5.09478" y1="24.8759" x2="35.1718" y2="0.504667" gradientUnits="userSpaceOnUse">
<stop stop-color="#315530"/>
<stop offset="1" stop-color="#6CBB6A"/>
</linearGradient>
</defs>
</svg>
