<svg width="40" height="25" viewBox="0 0 40 25" fill="none" xmlns="http://www.w3.org/2000/svg">
<path d="M3.1475 19.0514H15.1759C15.3733 19.0514 15.5527 19.1681 15.6363 19.3504L17.7748 24.0127C17.9325 24.3565 17.687 24.7519 17.3144 24.7519H0.509065C0.117249 24.7519 -0.126669 24.3189 0.0689029 23.9732L2.70734 19.3108C2.79813 19.1504 2.96587 19.0514 3.1475 19.0514ZM24.5812 19.0514H36.6096C36.7912 19.0514 36.959 19.1504 37.0498 19.3108L39.6882 23.9732C39.8838 24.3189 39.6399 24.7519 39.2481 24.7519H22.4427C22.0701 24.7519 21.8246 24.3565 21.9823 24.0127L24.1208 19.3504C24.2044 19.1681 24.3838 19.0514 24.5812 19.0514ZM6.56668 10.4502H16.4018C16.5429 10.4502 16.6777 10.5101 16.7738 10.6154L19.3293 13.4169C19.6263 13.7424 20.1309 13.7424 20.4278 13.4169L22.9834 10.6154C23.0795 10.5101 23.2142 10.4502 23.3553 10.4502H33.1904C33.3777 10.4502 33.5497 10.5551 33.6382 10.7233L36.1921 15.5723C36.374 15.9177 36.1293 16.3372 35.7443 16.3372H23.3553C23.1471 16.3372 22.9481 16.4256 22.8061 16.5813L20.2506 19.3828C20.0495 19.6032 19.7076 19.6032 19.5066 19.3828L16.951 16.5813C16.809 16.4256 16.61 16.3372 16.4018 16.3372H4.01279C3.62786 16.3372 3.38314 15.9177 3.56505 15.5723L6.11893 10.7233C6.20747 10.5551 6.37947 10.4502 6.56668 10.4502ZM11.9 0H16.5301C16.7101 2.48139e-06 16.8766 0.0971359 16.968 0.255227L19.2321 4.17226C19.5227 4.67493 20.2344 4.67493 20.525 4.17226L22.7892 0.255227C22.8806 0.0971371 23.047 3.10174e-06 23.227 0H27.8571C28.037 4.96278e-06 28.2035 0.0971402 28.2949 0.255227L32.1981 7.00763C32.3979 7.35323 32.1543 7.79045 31.7603 7.79045H7.99681C7.60287 7.79045 7.35923 7.35323 7.55905 7.00763L11.4623 0.255227C11.5537 0.0971408 11.7201 5.58313e-06 11.9 0Z" fill="url(#paint0_linear_2004_46559)"/>
<defs>
<linearGradient id="paint0_linear_2004_46559" x1="5.09478" y1="24.8759" x2="35.1718" y2="0.504667" gradientUnits="userSpaceOnUse">
<stop stop-color="#315530"/>
<stop offset="1" stop-color="#6CBB6A"/>
</linearGradient>
</defs>
</svg>
